<?xml version="1.0" encoding="UTF-8"?>
<svg width="30px" height="30px" viewBox="0 0 30 30" version="1.1" xmlns="http://www.w3.org/2000/svg" xmlns:xlink="http://www.w3.org/1999/xlink">
    <!-- Generator: Sketch 49.3 (51167) - http://www.bohemiancoding.com/sketch -->
    <title>Mobile</title>
    <desc>Created with Sketch.</desc>
    <defs></defs>
    <g id="Mobile" stroke="none" stroke-width="1" fill="none" fill-rule="evenodd">
        <path d="M19.5510476,17.3889382 L26.6631429,24.7644444 L24.8442857,26.6497778 L17.7569231,19.2999202 C16.2382673,20.5126202 14.3357738,21.2337778 12.2708571,21.2337778 C7.30028571,21.2337778 3.27085714,17.0551111 3.27085714,11.9004444 C3.27171429,6.74577778 7.30028571,2.56711111 12.2708571,2.56711111 C17.2414286,2.56711111 21.2708571,6.74577778 21.2708571,11.9004444 C21.2708571,13.9517976 20.6327066,15.8485793 19.5510476,17.3889382 Z M12.2725714,5.232 C8.72228571,5.232 5.844,8.21688889 5.844,11.8986667 C5.844,15.5804444 8.72228571,18.5653333 12.2725714,18.5653333 C15.8228571,18.5653333 18.7011429,15.5804444 18.7011429,11.8986667 C18.7011429,8.21688889 15.8228571,5.232 12.2725714,5.232 Z" id="search" fill="#9999CC"></path>
    </g>
</svg>